<svg xmlns="http://www.w3.org/2000/svg" width="275" height="47.64" viewBox="0 0 275 47.64"><defs><style>.cls-1{fill:#231815;}.cls-2{fill:#4ca535;}.cls-3{fill:#47bbc5;}.cls-4{fill:#dadf00;}.cls-5{fill:#005f32;}</style></defs><g id="レイヤー_2" data-name="レイヤー 2"><g id="ナビ"><path class="cls-1" d="M121.35,34.64h-2.79a.11.11,0,0,0-.1.1v.18a.11.11,0,0,0,.09.1,1.12,1.12,0,0,1,.66.17c.07.06.14.22.14.64V37.7h-2.87V35.83c0-.42.07-.58.14-.64a1.12,1.12,0,0,1,.66-.17.11.11,0,0,0,.08-.1v-.18a.1.1,0,0,0-.09-.1h-2.79a.1.1,0,0,0-.09.1v.18a.1.1,0,0,0,.08.1,1.12,1.12,0,0,1,.66.17c.07.06.14.22.14.64v4.36c0,.53-.08.69-.12.74s-.2.13-.68.19a.08.08,0,0,0-.08.09v.19a.09.09,0,0,0,.09.09h2.79a.09.09,0,0,0,.09-.09v-.19a.09.09,0,0,0-.08-.09,1.26,1.26,0,0,1-.67-.18c-.06-.06-.13-.22-.13-.64v-2h2.87v1.87c0,.53-.08.69-.12.74s-.2.14-.68.19a.09.09,0,0,0-.09.09v.19a.1.1,0,0,0,.1.09h2.79a.09.09,0,0,0,.09-.09v-.19a.09.09,0,0,0-.08-.09,1.18,1.18,0,0,1-.67-.18c-.06-.06-.13-.22-.13-.64V35.83c0-.42.07-.58.13-.64a1.15,1.15,0,0,1,.66-.17.11.11,0,0,0,.09-.1v-.18a.1.1,0,0,0-.09-.1"/><path class="cls-1" d="M125.78,36.69a2.17,2.17,0,0,0-1.67.71,2.45,2.45,0,0,0-.65,1.72,2.55,2.55,0,0,0,.68,1.8,2.23,2.23,0,0,0,1.67.72,2.1,2.1,0,0,0,1.67-.75,2.62,2.62,0,0,0,.64-1.76,2.37,2.37,0,0,0-.67-1.77,2.28,2.28,0,0,0-1.67-.67m-.75.72a.85.85,0,0,1,.61-.24,1.09,1.09,0,0,1,1,.7,3.41,3.41,0,0,1,.37,1.56,2.5,2.5,0,0,1-.28,1.28.87.87,0,0,1-.77.47,1.13,1.13,0,0,1-1-.71,3.37,3.37,0,0,1-.39-1.59,1.9,1.9,0,0,1,.47-1.47"/><path class="cls-1" d="M132.86,40.53a.09.09,0,0,0-.13,0,1.2,1.2,0,0,1-.28.25.41.41,0,0,1-.25.07.37.37,0,0,1-.38-.28,1.7,1.7,0,0,1-.06-.53V37.31h.91a.1.1,0,0,0,.1-.09v-.36a.1.1,0,0,0-.1-.09h-.9V35.66a.17.17,0,0,0-.05-.15.19.19,0,0,0-.13,0,.08.08,0,0,0-.07,0c-.37.49-.6.8-.7.91a4.55,4.55,0,0,1-.48.45l-.15.13a.22.22,0,0,0,0,.14.13.13,0,0,0,0,.1s0,0,.06,0h.49V40.2a2.23,2.23,0,0,0,.12.81.85.85,0,0,0,.87.57,1.32,1.32,0,0,0,.59-.15,1.73,1.73,0,0,0,.58-.52l.1-.14a.09.09,0,0,0,0-.13Z"/><path class="cls-1" d="M139.12,39.74l-.17-.06a.08.08,0,0,0-.11,0,2.63,2.63,0,0,1-.63.74,1.35,1.35,0,0,1-.81.25,1.33,1.33,0,0,1-1-.49,2.44,2.44,0,0,1-.49-1.5h3a.1.1,0,0,0,.1-.1,1.82,1.82,0,0,0-1.83-1.93,2,2,0,0,0-1.6.76,2.7,2.7,0,0,0-.6,1.76,2.75,2.75,0,0,0,.52,1.66,1.74,1.74,0,0,0,1.5.73,2,2,0,0,0,1.42-.55,2.89,2.89,0,0,0,.78-1.2.09.09,0,0,0-.06-.11m-3.21-1.52a1.5,1.5,0,0,1,.19-.53.84.84,0,0,1,.77-.45.75.75,0,0,1,.73.38,1.7,1.7,0,0,1,.16.6Z"/><path class="cls-1" d="M143.58,41.17A1.06,1.06,0,0,1,143,41s-.11-.15-.11-.48v-5.9a1.42,1.42,0,0,0,0-.15.13.13,0,0,0-.16-.09c-.61.19-1.15.35-1.59.47a.1.1,0,0,0-.07.09v.16a.08.08,0,0,0,0,.07.08.08,0,0,0,.08,0l.2,0c.24,0,.39,0,.45.14a1.13,1.13,0,0,1,0,.4v4.81a.61.61,0,0,1-.13.47,1,1,0,0,1-.56.17.09.09,0,0,0-.09.09v.14a.09.09,0,0,0,.1.09h2.37a.1.1,0,0,0,.1-.09v-.14a.09.09,0,0,0-.09-.09"/><path class="cls-1" d="M158.91,34.64h-2a.1.1,0,0,0-.08.06l-2.17,4.83-2.23-4.83a.1.1,0,0,0-.08-.06h-2a.1.1,0,0,0-.09.1v.18a.11.11,0,0,0,.09.1,1.26,1.26,0,0,1,.72.16c.07.07.14.23.14.65v4.08a1.77,1.77,0,0,1-.15,1,1.14,1.14,0,0,1-.74.25.08.08,0,0,0-.08.09v.19a.09.09,0,0,0,.09.09h2.36a.09.09,0,0,0,.09-.09v-.19a.08.08,0,0,0-.08-.09c-.42,0-.58-.13-.64-.2s-.22-.36-.22-1V36.32l2.36,5.11a.08.08,0,0,0,.08.06h.14a.08.08,0,0,0,.08-.06l2.4-5.33v4.08a1.38,1.38,0,0,1-.12.75s-.2.15-.7.19a.09.09,0,0,0-.09.09v.19a.1.1,0,0,0,.1.09h2.81a.09.09,0,0,0,.09-.09v-.19a.08.08,0,0,0-.08-.09,1.22,1.22,0,0,1-.67-.18c-.06-.06-.13-.22-.13-.64V35.83c0-.41.07-.57.14-.64s.22-.14.66-.17a.1.1,0,0,0,.08-.1v-.18a.1.1,0,0,0-.09-.1"/><path class="cls-1" d="M165.44,40.61a.12.12,0,0,0-.1,0,1.07,1.07,0,0,1-.24.16.26.26,0,0,1-.14,0,.17.17,0,0,1-.18-.13,1,1,0,0,1,0-.37v-2a2.23,2.23,0,0,0-.19-1,1.43,1.43,0,0,0-1.37-.67,2,2,0,0,0-1.31.4,1.15,1.15,0,0,0-.46.79.59.59,0,0,0,.14.38.51.51,0,0,0,.41.18.6.6,0,0,0,.3-.07.5.5,0,0,0,.22-.47,1.18,1.18,0,0,0,0-.19,1.52,1.52,0,0,1,0-.19.31.31,0,0,1,.18-.28.84.84,0,0,1,.43-.11c.32,0,.52.09.61.27a1.65,1.65,0,0,1,.09.66v.35a10.74,10.74,0,0,0-1.76.79h0a1.5,1.5,0,0,0-.75,1.27,1.11,1.11,0,0,0,.33.82,1.16,1.16,0,0,0,.8.32,1.74,1.74,0,0,0,.9-.28,3.17,3.17,0,0,0,.52-.38,1,1,0,0,0,.16.39.63.63,0,0,0,.56.26,1,1,0,0,0,.61-.21,1.39,1.39,0,0,0,.36-.33.11.11,0,0,0,0-.06V40.7a.11.11,0,0,0-.05-.09M163,39.16a4.2,4.2,0,0,1,.79-.36v1.43a.44.44,0,0,1-.25.38,1,1,0,0,1-.57.17.62.62,0,0,1-.63-.7c0-.34.22-.64.66-.92"/><path class="cls-1" d="M170,40.53a.09.09,0,0,0-.13,0,1.44,1.44,0,0,1-.28.25.44.44,0,0,1-.26.07.36.36,0,0,1-.37-.28,1.7,1.7,0,0,1-.06-.53V37.31h.91a.09.09,0,0,0,.09-.09v-.36a.09.09,0,0,0-.09-.09h-.9V35.66a.17.17,0,0,0,0-.15.21.21,0,0,0-.13,0,.09.09,0,0,0-.08,0c-.36.49-.6.8-.7.91a3.14,3.14,0,0,1-.48.45l-.15.13a.21.21,0,0,0,0,.14.2.2,0,0,0,0,.1l.06,0h.49V40.2A2.23,2.23,0,0,0,168,41a.87.87,0,0,0,.88.57,1.36,1.36,0,0,0,.59-.15,1.71,1.71,0,0,0,.57-.52l.11-.14a.09.09,0,0,0,0-.13Z"/><path class="cls-1" d="M174.46,38.76l-.65-.35c-.42-.21-.63-.46-.63-.72a.6.6,0,0,1,.64-.61.87.87,0,0,1,.8.44,2.31,2.31,0,0,1,.26.71.09.09,0,0,0,.09.08h.15a.11.11,0,0,0,.07,0,.14.14,0,0,0,0-.07l0-1.37a.09.09,0,0,0-.09-.09H175a.08.08,0,0,0-.08,0l0,.05h-.08l-.32-.1a2,2,0,0,0-.6-.1,1.52,1.52,0,0,0-1,.38,1.26,1.26,0,0,0-.43,1,1.28,1.28,0,0,0,.31.84,3.57,3.57,0,0,0,.91.67l.55.31a1.24,1.24,0,0,1,.41.35.64.64,0,0,1,.1.35.62.62,0,0,1-.18.46.73.73,0,0,1-.52.17,1,1,0,0,1-.93-.5,2.72,2.72,0,0,1-.29-.83.09.09,0,0,0-.09-.08h-.16a.1.1,0,0,0-.09.1v1.58a.09.09,0,0,0,.09.1h.13a.09.09,0,0,0,.08-.06l.05-.07a.05.05,0,0,1,0,0,2.71,2.71,0,0,1,.42.1,2.55,2.55,0,0,0,.69.1,1.76,1.76,0,0,0,1.19-.39,1.27,1.27,0,0,0,.47-1c0-.54-.37-1-1.09-1.41"/><path class="cls-1" d="M182.44,40.78a.66.66,0,0,1-.44-.08.62.62,0,0,1-.09-.4V36.84a.09.09,0,0,0-.1-.09h-1.58a.09.09,0,0,0-.09.09V37a.08.08,0,0,0,.08.09,1.12,1.12,0,0,1,.54.12c.05,0,.11.15.11.43V40.3a1.49,1.49,0,0,1-.33.3,1,1,0,0,1-.6.21.58.58,0,0,1-.58-.32,1.15,1.15,0,0,1-.09-.5V36.84a.09.09,0,0,0-.09-.09h-1.47a.09.09,0,0,0-.09.09V37a.09.09,0,0,0,.08.09,1.07,1.07,0,0,1,.42.1.6.6,0,0,1,.13.45v2.55a1.31,1.31,0,0,0,.42,1.09,1.37,1.37,0,0,0,.86.32,1.6,1.6,0,0,0,.94-.31,2.83,2.83,0,0,0,.46-.42v.55a.17.17,0,0,0,0,.07.13.13,0,0,0,.15.09,4.7,4.7,0,0,1,.56-.21l.42-.14.4-.11a.1.1,0,0,0,.07-.09v-.14a.07.07,0,0,0,0-.06s0,0-.07,0"/><path class="cls-1" d="M189.49,41.16a.52.52,0,0,1-.41-.13.64.64,0,0,1-.12-.45V38.29a1.61,1.61,0,0,0-.57-1.41,1.35,1.35,0,0,0-1.5,0,4.48,4.48,0,0,0-.57.45v-.52a.28.28,0,0,0,0-.09.13.13,0,0,0-.16-.09l-.46.16-.95.3a.1.1,0,0,0-.07.09v.17a.1.1,0,0,0,0,.07.08.08,0,0,0,.07,0H185c.24,0,.29.1.3.14a.85.85,0,0,1,0,.39v2.5c0,.36-.07.48-.11.52a.85.85,0,0,1-.43.15.09.09,0,0,0-.09.09v.14a.1.1,0,0,0,.1.09h2.14a.09.09,0,0,0,.1-.09v-.14a.11.11,0,0,0-.09-.1.74.74,0,0,1-.45-.11c-.08-.06-.12-.19-.12-.4V37.94a2.84,2.84,0,0,1,.39-.33,1,1,0,0,1,.54-.19.5.5,0,0,1,.49.24,1.25,1.25,0,0,1,.15.65v2.1c0,.38-.07.53-.12.58a.73.73,0,0,1-.45.18.09.09,0,0,0-.08.09v.14a.09.09,0,0,0,.1.09h2.09a.09.09,0,0,0,.1-.09v-.14a.11.11,0,0,0-.09-.1"/><path class="cls-1" d="M193.88,36.69a2.16,2.16,0,0,0-1.66.71,2.45,2.45,0,0,0-.65,1.72,2.55,2.55,0,0,0,.68,1.8,2.2,2.2,0,0,0,1.66.72,2.12,2.12,0,0,0,1.68-.75,2.67,2.67,0,0,0,.64-1.76,2.41,2.41,0,0,0-.67-1.77,2.3,2.3,0,0,0-1.68-.67m1.25,2.74a2.5,2.5,0,0,1-.29,1.28.84.84,0,0,1-.77.47,1.12,1.12,0,0,1-1-.71,3.34,3.34,0,0,1-.39-1.59,1.94,1.94,0,0,1,.46-1.48.93.93,0,0,1,.61-.23,1.1,1.1,0,0,1,1,.7,3.54,3.54,0,0,1,.37,1.56"/><path class="cls-1" d="M203.23,41.18a1.37,1.37,0,0,1-.71-.31,9.25,9.25,0,0,1-1-1.18l-.85-1.12.23-.21a10.31,10.31,0,0,1,1.26-1,2,2,0,0,1,.85-.21.08.08,0,0,0,.08-.09v-.14a.09.09,0,0,0-.09-.09h-2.05a.09.09,0,0,0-.09.09V37a.09.09,0,0,0,.09.09,2.17,2.17,0,0,1,.38,0s0,0,0,.05a.25.25,0,0,1,0,.09,1,1,0,0,1-.18.19l-1.21,1.07V34.62a.31.31,0,0,0,0-.11.15.15,0,0,0-.12,0,1.1,1.1,0,0,0-.28.08c-.23.07-.51.16-.85.25l-.44.11a.1.1,0,0,0-.07.09v.14a.09.09,0,0,0,0,.07.07.07,0,0,0,.07,0h.31a.44.44,0,0,1,.28.08s.08.09.08.37v4.93c0,.3-.06.41-.12.46s-.2.11-.57.14a.09.09,0,0,0-.08.09v.13a.09.09,0,0,0,.09.09h2.36a.09.09,0,0,0,.09-.09v-.13a.09.09,0,0,0-.09-.09,1.29,1.29,0,0,1-.47-.07.35.35,0,0,1-.2-.37V39.18L201.26,41l.06.1a.11.11,0,0,1,0,.08l-.12,0H201a.09.09,0,0,0-.09.09v.13a.09.09,0,0,0,.09.09h2.19a.09.09,0,0,0,.09-.09v-.13a.09.09,0,0,0-.08-.09"/><path class="cls-1" d="M209.59,40.61a.1.1,0,0,0-.09,0,1.4,1.4,0,0,1-.24.16.33.33,0,0,1-.15,0,.17.17,0,0,1-.18-.13,1.64,1.64,0,0,1,0-.37v-2a2.21,2.21,0,0,0-.2-1,1.43,1.43,0,0,0-1.37-.67A2,2,0,0,0,206,37a1.13,1.13,0,0,0-.45.79.59.59,0,0,0,.14.38.48.48,0,0,0,.41.18.54.54,0,0,0,.29-.07.51.51,0,0,0,.23-.47.8.8,0,0,0,0-.19,1,1,0,0,1,0-.19.31.31,0,0,1,.18-.28.81.81,0,0,1,.43-.11.63.63,0,0,1,.61.27,1.58,1.58,0,0,1,.09.66v.35a10.74,10.74,0,0,0-1.76.79h0a1.51,1.51,0,0,0-.76,1.27,1.13,1.13,0,0,0,1.14,1.14,1.71,1.71,0,0,0,.89-.28,3.35,3.35,0,0,0,.52-.38,1,1,0,0,0,.16.39.65.65,0,0,0,.56.26,1.08,1.08,0,0,0,.62-.21,1.53,1.53,0,0,0,.35-.33.07.07,0,0,0,0-.06V40.7a.1.1,0,0,0-.06-.09m-2.49-1.45a4.32,4.32,0,0,1,.8-.36v1.43a.45.45,0,0,1-.26.38,1,1,0,0,1-.57.17.61.61,0,0,1-.37-.12.64.64,0,0,1-.26-.58c0-.34.22-.64.66-.92"/><path class="cls-1" d="M219.15,34.64h-3a.1.1,0,0,0-.09.1v.18a.11.11,0,0,0,.09.1,1.32,1.32,0,0,1,.74.16c.07.06.15.22.15.65V40.3c0,.47-.09.61-.15.65a1.49,1.49,0,0,1-.74.17.09.09,0,0,0-.09.09v.19a.09.09,0,0,0,.09.09h3a.09.09,0,0,0,.09-.09v-.19a.08.08,0,0,0-.08-.09,1.51,1.51,0,0,1-.75-.17s-.14-.18-.14-.65V35.83c0-.43.08-.59.15-.65a1.32,1.32,0,0,1,.74-.16.1.1,0,0,0,.08-.1v-.18a.1.1,0,0,0-.09-.1"/><path class="cls-1" d="M225.13,39.73a.09.09,0,0,0-.12,0,3,3,0,0,1-.5.59,1.32,1.32,0,0,1-1.92-.24,2.13,2.13,0,0,1-.41-1.28,2,2,0,0,1,.37-1.24,1.06,1.06,0,0,1,.87-.46.69.69,0,0,1,.38.09.58.58,0,0,1,.18.32l.06.23a.74.74,0,0,0,.22.39.57.57,0,0,0,.78,0,.56.56,0,0,0,.14-.36,1,1,0,0,0-.49-.77,1.87,1.87,0,0,0-1.11-.33,2.2,2.2,0,0,0-1.7.76,2.68,2.68,0,0,0-.66,1.81,2.34,2.34,0,0,0,.61,1.71,1.94,1.94,0,0,0,1.43.63,1.89,1.89,0,0,0,1.44-.69,4,4,0,0,0,.6-1,.08.08,0,0,0,0-.11Z"/><path class="cls-1" d="M232.2,41.17a.67.67,0,0,1-.44-.18,1.16,1.16,0,0,1-.1-.62v-2a2.42,2.42,0,0,0-.16-1,1.17,1.17,0,0,0-1.17-.72,1.68,1.68,0,0,0-1,.31,3,3,0,0,0-.41.36V34.51a.21.21,0,0,0,0-.06.08.08,0,0,0-.07,0l-.48.14-.43.13-.54.16a.09.09,0,0,0-.06.09v.18a.11.11,0,0,0,0,.07l.07,0,.12,0h.09c.14,0,.24,0,.26.09a.73.73,0,0,1,.06.36v4.71c0,.44-.06.58-.1.63a.76.76,0,0,1-.47.17.09.09,0,0,0-.08.09v.14a.09.09,0,0,0,.09.09h2.17a.09.09,0,0,0,.09-.09v-.14a.08.08,0,0,0-.08-.09.9.9,0,0,1-.49-.17s-.1-.18-.1-.63V38s0-.08.32-.29a1.12,1.12,0,0,1,.69-.26.53.53,0,0,1,.52.25,1.48,1.48,0,0,1,.15.72v2a1.22,1.22,0,0,1-.1.63.91.91,0,0,1-.5.17.09.09,0,0,0-.08.09v.14a.09.09,0,0,0,.1.09h2.12a.1.1,0,0,0,.1-.09v-.14a.09.09,0,0,0-.08-.09"/><path class="cls-1" d="M236.94,41.17c-.39,0-.51-.11-.56-.16s-.11-.18-.11-.64V36.85a.31.31,0,0,0,0-.1.1.1,0,0,0-.09-.07.61.61,0,0,0-.21.07c-.22.09-.62.23-1.19.42l-.21.06a.11.11,0,0,0-.07.09v.15a.12.12,0,0,0,0,.08.08.08,0,0,0,.08,0l.29-.07H235c.12,0,.19,0,.22.14a1.26,1.26,0,0,1,0,.41v2.34c0,.49-.08.61-.11.64s-.18.12-.61.16a.09.09,0,0,0-.08.09v.14a.09.09,0,0,0,.09.09h2.39a.09.09,0,0,0,.09-.09v-.14a.09.09,0,0,0-.08-.09"/><path class="cls-1" d="M235.69,35.65a.62.62,0,0,0,.6-.6.58.58,0,0,0-.18-.43.58.58,0,0,0-.42-.18.57.57,0,0,0-.43.18.6.6,0,0,0-.18.43.56.56,0,0,0,.18.42.57.57,0,0,0,.43.18"/><path class="cls-1" d="M244,41.16a.51.51,0,0,1-.4-.13.64.64,0,0,1-.12-.45V38.29a1.61,1.61,0,0,0-.57-1.41,1.35,1.35,0,0,0-1.5,0,4.48,4.48,0,0,0-.57.45v-.52a.28.28,0,0,0,0-.09.13.13,0,0,0-.16-.09l-.46.16-.95.3a.1.1,0,0,0-.07.09v.17a.1.1,0,0,0,0,.07.06.06,0,0,0,.07,0h.19c.24,0,.29.1.3.13a1.11,1.11,0,0,1,0,.4v2.5c0,.36-.07.48-.11.52a.85.85,0,0,1-.44.15.09.09,0,0,0-.08.09v.14a.09.09,0,0,0,.1.09h2.14a.1.1,0,0,0,.1-.09v-.14a.11.11,0,0,0-.09-.1.74.74,0,0,1-.45-.11c-.08-.06-.12-.19-.12-.4V37.94a2.84,2.84,0,0,1,.39-.33,1,1,0,0,1,.54-.19.51.51,0,0,1,.49.24,1.28,1.28,0,0,1,.15.65v2.1c0,.38-.07.53-.12.58a.73.73,0,0,1-.45.18.09.09,0,0,0-.08.09v.14a.09.09,0,0,0,.09.09H244a.1.1,0,0,0,.1-.09v-.14a.12.12,0,0,0-.1-.1"/><path class="cls-1" d="M248.41,36.69a2.2,2.2,0,0,0-1.67.71,2.49,2.49,0,0,0-.64,1.72,2.55,2.55,0,0,0,.68,1.8,2.2,2.2,0,0,0,1.66.72,2.08,2.08,0,0,0,1.67-.76,2.58,2.58,0,0,0,.65-1.75,2.41,2.41,0,0,0-.67-1.77,2.3,2.3,0,0,0-1.68-.67m.19,4.49a1.14,1.14,0,0,1-1-.71,3.45,3.45,0,0,1-.38-1.59,1.94,1.94,0,0,1,.46-1.48.89.89,0,0,1,.61-.23,1.1,1.1,0,0,1,1,.7,3.54,3.54,0,0,1,.37,1.56,2.5,2.5,0,0,1-.29,1.28.84.84,0,0,1-.77.47"/><path class="cls-1" d="M255.29,38.76l-.65-.35c-.42-.21-.63-.46-.63-.72a.61.61,0,0,1,.17-.43.6.6,0,0,1,.48-.18.88.88,0,0,1,.8.44,2.32,2.32,0,0,1,.25.71.09.09,0,0,0,.09.08H256a.1.1,0,0,0,.1-.1l0-1.37a.09.09,0,0,0-.09-.09h-.12a.1.1,0,0,0-.08,0,.11.11,0,0,1,0,.05h-.07l-.33-.1a1.93,1.93,0,0,0-.6-.1,1.52,1.52,0,0,0-1.05.38,1.25,1.25,0,0,0-.42,1,1.23,1.23,0,0,0,.31.84,3.24,3.24,0,0,0,.91.67l.55.31a1.19,1.19,0,0,1,.4.35.66.66,0,0,1,.11.35.59.59,0,0,1-.19.46.69.69,0,0,1-.51.17,1,1,0,0,1-.93-.5,2.48,2.48,0,0,1-.29-.83.11.11,0,0,0-.09-.08h-.16a.1.1,0,0,0-.1.1v1.58a.09.09,0,0,0,.1.1h.12a.11.11,0,0,0,.09-.06.12.12,0,0,1,.05-.07l0,0a2.43,2.43,0,0,1,.42.1,2.67,2.67,0,0,0,.69.1,1.8,1.8,0,0,0,1.2-.39,1.27,1.27,0,0,0,.47-1c0-.54-.37-1-1.1-1.41"/><path class="cls-1" d="M262.82,39.74l-.17-.06a.08.08,0,0,0-.11,0,2.48,2.48,0,0,1-.63.74,1.38,1.38,0,0,1-1.85-.24,2.51,2.51,0,0,1-.49-1.5h3a.09.09,0,0,0,.09-.1,1.84,1.84,0,0,0-.55-1.42,1.82,1.82,0,0,0-1.28-.51,2,2,0,0,0-1.59.76,2.71,2.71,0,0,0-.61,1.76,2.82,2.82,0,0,0,.52,1.66,1.75,1.75,0,0,0,1.5.73,2,2,0,0,0,1.42-.55,2.89,2.89,0,0,0,.78-1.2.08.08,0,0,0-.06-.11m-3.21-1.52a1.73,1.73,0,0,1,.19-.53.86.86,0,0,1,.78-.45.74.74,0,0,1,.72.38,1.7,1.7,0,0,1,.16.6Z"/><path class="cls-1" d="M269.81,41.18a1.37,1.37,0,0,1-.7-.31,9.25,9.25,0,0,1-1-1.18l-.85-1.12.23-.21a10.31,10.31,0,0,1,1.26-1,2,2,0,0,1,.85-.21.09.09,0,0,0,.08-.09v-.14a.09.09,0,0,0-.09-.09H267.5a.09.09,0,0,0-.09.09V37a.09.09,0,0,0,.09.09,1.91,1.91,0,0,1,.37,0s0,0,0,.05a.15.15,0,0,1,0,.09,1,1,0,0,1-.18.19l-1.21,1.07V34.62a.31.31,0,0,0,0-.11.15.15,0,0,0-.12,0,1,1,0,0,0-.28.08l-.85.25-.44.11a.09.09,0,0,0-.07.09v.14a.09.09,0,0,0,0,.07.06.06,0,0,0,.07,0h.3a.48.48,0,0,1,.29.08s.08.09.08.37v4.93c0,.3-.06.41-.12.46a1.08,1.08,0,0,1-.57.14.08.08,0,0,0-.08.09v.13a.09.09,0,0,0,.09.09h2.35a.1.1,0,0,0,.1-.09v-.13a.1.1,0,0,0-.1-.09,1.29,1.29,0,0,1-.47-.07.36.36,0,0,1-.19-.37V39.18L267.84,41l.07.1a.11.11,0,0,1,0,.08l-.12,0h-.18a.08.08,0,0,0-.08.09v.13a.09.09,0,0,0,.09.09h2.19a.09.09,0,0,0,.09-.09v-.13a.09.09,0,0,0-.09-.09"/><path class="cls-1" d="M273.25,35.65a.62.62,0,0,0,.6-.6.58.58,0,0,0-.18-.43.56.56,0,0,0-.42-.18.57.57,0,0,0-.43.18.6.6,0,0,0-.18.43.56.56,0,0,0,.18.42.57.57,0,0,0,.43.18"/><path class="cls-1" d="M274.5,41.17c-.39,0-.51-.11-.55-.16s-.11-.18-.11-.64V36.85a.3.3,0,0,0,0-.1.09.09,0,0,0-.09-.07.61.61,0,0,0-.21.07c-.22.09-.62.23-1.19.42l-.21.06a.1.1,0,0,0-.06.09v.15a.11.11,0,0,0,0,.08.08.08,0,0,0,.08,0l.29-.07h.09c.12,0,.19,0,.22.14a1.26,1.26,0,0,1,0,.41v2.34c0,.49-.07.61-.11.64s-.18.12-.61.16a.09.09,0,0,0-.08.09v.14a.09.09,0,0,0,.09.09h2.39a.09.09,0,0,0,.09-.09v-.14a.08.08,0,0,0-.08-.09"/><path class="cls-1" d="M206.67,14.14a7.26,7.26,0,0,0-5.06-1.75,7,7,0,0,0-5,2,6.87,6.87,0,0,0-2.12,4.39c0,.23,0,.45,0,.67a4.31,4.31,0,0,0,1,3,2.51,2.51,0,0,0,1.91.88,2.36,2.36,0,0,0,1.68-.91,13.08,13.08,0,0,0,2.3-4.24,14.69,14.69,0,0,0,1-4.48,4.9,4.9,0,0,1,3.13,1.4,4.65,4.65,0,0,1,1.25,3.38,4.55,4.55,0,0,1-1.54,3.32A9,9,0,0,1,201,24a.58.58,0,0,0-.45.58.59.59,0,0,0,.19.47.54.54,0,0,0,.36.12h.15a10.57,10.57,0,0,0,5.4-2.38,5.86,5.86,0,0,0,1.88-4.47,5.42,5.42,0,0,0-1.84-4.16m-5.64-.4a20.92,20.92,0,0,1-1.53,4.83,13.37,13.37,0,0,1-1.41,2.52c-.47.59-.7.64-.76.64a.87.87,0,0,1-.61-.34,2.94,2.94,0,0,1-.65-2.07,5.49,5.49,0,0,1,1.54-3.85A5.37,5.37,0,0,1,201,13.74"/><path class="cls-1" d="M179.48,18.88a1.16,1.16,0,0,0-.29-.61h0c-.84-1-2.51-2.71-2.58-2.78l-.06-.05v-.15H178A1.14,1.14,0,0,0,178,13a1.12,1.12,0,0,0-1,.68h-.44V11A.8.8,0,0,0,175,11V13.7h-1.63a.79.79,0,0,0-.79.79.79.79,0,0,0,.79.8H175c-.49,1.05-1.84,3.92-2.93,5.82-.17.28-.25.59,0,.78.44.31,1-.36,1.16-.6A10.83,10.83,0,0,0,175,18.57v6.92a.8.8,0,0,0,1.59,0V17.7c.26.27.53.56.78.84a1.14,1.14,0,0,0-.1.64,1.13,1.13,0,0,0,2.25-.3"/><path class="cls-1" d="M182.8,11.68a1,1,0,0,0-.86-.49,1,1,0,0,0-1,.83,22.89,22.89,0,0,1-1.72,4.48.48.48,0,0,0-.07.26.53.53,0,0,0,.57.55.54.54,0,0,0,.39-.18,10.7,10.7,0,0,0,2.37-4.06.93.93,0,0,0,.48-.85,1.06,1.06,0,0,0-.16-.54"/><path class="cls-1" d="M188.73,16.26a8.83,8.83,0,0,1-2.07-3.37,5.73,5.73,0,0,1-.26-1.14l.07-.06a.9.9,0,0,0,.28-.65.81.81,0,0,0-.89-.87.86.86,0,0,0-.68.31h-1.32a.55.55,0,0,0-.58.6.53.53,0,0,0,.58.57h.94a9.41,9.41,0,0,0,2.79,5.7.75.75,0,0,0,.57.25.79.79,0,0,0,.55-.22.8.8,0,0,0,0-1.12"/><path class="cls-1" d="M189.27,24.69a7.12,7.12,0,0,0-1.18-1.92,9.42,9.42,0,0,0-2-1.84.52.52,0,0,0-.33-.1.5.5,0,0,0-.55.53.67.67,0,0,0,.12.35c.34.46.66.94,1,1.41-.9.13-2.28.26-3.52.38h-.17l-1,.1a25,25,0,0,0,1.79-4.52,1.13,1.13,0,1,0-1.27-1.4,22.89,22.89,0,0,1-2.47,6.09h-.2a1,1,0,0,0-.64,1.77,1,1,0,0,0,.63.21.87.87,0,0,0,.73-.35h0l1.74-.28c2.13-.34,4-.65,4.95-.91a8.14,8.14,0,0,1,.41.87,1,1,0,0,0,.2.7.9.9,0,0,0,.72.37h.11a.9.9,0,0,0,.67-.28,1,1,0,0,0,.29-.76,1.41,1.41,0,0,0-.08-.44"/><path class="cls-1" d="M167.73,19.22a.67.67,0,0,0-.27-.46.64.64,0,0,0-.94,0A15.93,15.93,0,0,1,163,21.59a12.53,12.53,0,0,1-2,.9V12.35a1,1,0,1,0-1.9,0V23.44a1.11,1.11,0,0,0,.26.76,1,1,0,0,0,.82.32h.25a8.12,8.12,0,0,0,2.88-1.12,15.29,15.29,0,0,0,4.22-3.66.67.67,0,0,0,.17-.51"/><path class="cls-1" d="M156,11.4a1,1,0,0,0-.95.95v4.18a11.68,11.68,0,0,1-1.14,4.61,7.51,7.51,0,0,1-2.68,3.12l-.07,0a.75.75,0,0,0-.37.47.73.73,0,0,0,.13.58.7.7,0,0,0,.61.36.92.92,0,0,0,.38-.09,8.06,8.06,0,0,0,3.55-3.31,13.18,13.18,0,0,0,1.5-6.24V12.35a1,1,0,0,0-1-.95"/><path class="cls-1" d="M127.54,16.17h0a1.18,1.18,0,1,0-.92-1.91H123v-3a1,1,0,0,0-1.91,0v3h-4.55a1,1,0,1,0,0,1.91H121v7.74a5.34,5.34,0,0,0-.48-.24.64.64,0,0,0-.87.4.63.63,0,0,0,.27.81c.88.55,1,.77,1,.78a.67.67,0,0,0,.67.63,1.17,1.17,0,0,0,1.08-.72,2.82,2.82,0,0,0,.28-1.29h0V16.17Z"/><path class="cls-1" d="M117.92,18.67a.7.7,0,0,0-.53-.11.65.65,0,0,0-.57.57,3.34,3.34,0,0,1-.73,1.39,6.21,6.21,0,0,1-1.38,1.33.92.92,0,0,0,.15,1.83,1,1,0,0,0,.45-.11,5.22,5.22,0,0,0,2.28-2.07,4.07,4.07,0,0,0,.62-2.05c0-.1,0-.21,0-.31a.67.67,0,0,0-.27-.47"/><path class="cls-1" d="M129.81,22.16a8.94,8.94,0,0,0-3.28-3.3.69.69,0,0,0-.53-.13.71.71,0,0,0-.44.33.64.64,0,0,0,.07.84c.71.8,1.53,1.8,2.43,3a.89.89,0,0,0,.91.67,1,1,0,0,0,.67-.28,1,1,0,0,0,.27-.69,1,1,0,0,0-.1-.43"/><path class="cls-1" d="M137.28,13.87h7.87a1.18,1.18,0,1,0,0-2.36,1.2,1.2,0,0,0-.93.45h-6.94a1,1,0,1,0,0,1.91"/><path class="cls-1" d="M147.24,15.77a1.17,1.17,0,0,0-.93.46H135.36a.95.95,0,1,0,0,1.9h5.5v.81a5.76,5.76,0,0,1-.77,2.8,6.91,6.91,0,0,1-3.93,2.91.78.78,0,0,0-.47.36.75.75,0,0,0,0,.59.71.71,0,0,0,.68.49h.16a7.56,7.56,0,0,0,5.33-3.49,7.52,7.52,0,0,0,1-3.66s0-.38,0-.8h4.39a1.18,1.18,0,1,0,0-2.36"/><path class="cls-1" d="M215.69,23.71a.45.45,0,0,0-.35.16,6.26,6.26,0,0,1-1.23,1,.77.77,0,0,0-.67.77.78.78,0,0,0,.28.6.92.92,0,0,0,.61.22.9.9,0,0,0,.4-.09,2.65,2.65,0,0,0,1.41-2.17h0a.4.4,0,0,0-.09-.35.43.43,0,0,0-.36-.14"/><path class="cls-1" d="M219.12,23.7a.44.44,0,0,0-.29-.11.45.45,0,0,0-.34.15.39.39,0,0,0-.09.39,6.29,6.29,0,0,1,.28,1.28.69.69,0,0,0,0,.25.68.68,0,0,0,.24.53.8.8,0,0,0,.57.22.72.72,0,0,0,.8-.67,2.25,2.25,0,0,0-1.13-2"/><path class="cls-1" d="M223.63,24.27a2.38,2.38,0,0,0-1.38-.69.41.41,0,0,0-.46.42.44.44,0,0,0,.12.29,6.31,6.31,0,0,1,.9,1.24.74.74,0,0,0,.79.75h.05a.84.84,0,0,0,.57-.21.72.72,0,0,0,.27-.57c0-.36-.28-.76-.86-1.24"/><path class="cls-1" d="M228.27,24.17a6.32,6.32,0,0,0-1.51-.65.45.45,0,0,0-.42.07.44.44,0,0,0-.17.35.36.36,0,0,0,.15.3,7.68,7.68,0,0,1,1.19,1.33.79.79,0,0,0,.81.7h.06a.91.91,0,0,0,.6-.21.76.76,0,0,0,.29-.6c0-.45-.33-.87-1-1.29"/><path class="cls-1" d="M214.34,12.1h3.82a.79.79,0,0,0,1.56,0h3.51a.79.79,0,0,0,1.57,0h3.48a.89.89,0,0,0,0-1.77.89.89,0,0,0-.85.64h-2.62a.79.79,0,0,0-.79-.79.8.8,0,0,0-.8.79h-3.49a.79.79,0,1,0-1.58,0h-3.81a.57.57,0,0,0,0,1.13"/><path class="cls-1" d="M229.12,21.72a.82.82,0,0,0-.8.63h-5.93v-.49h5.07a.81.81,0,0,0,.81-.81.82.82,0,0,0-.81-.82.82.82,0,0,0-.8.64h-4.27v-.6h3.15a.74.74,0,0,0,.62.36.73.73,0,0,0,.73-.72V16.69a.72.72,0,0,0-1.35-.37h-3.15v-.59h6.21a.82.82,0,0,0,0-1.64.83.83,0,0,0-.8.64h-5.41v-.52s0,0,0,0h0s2.89-.1,3.87-.19a.7.7,0,0,0,.61-.73.73.73,0,0,0-.31-.65h0a.9.9,0,0,0-.43-.13.72.72,0,0,0-.65.34c-2.83.29-5.92.54-9.2.73a.35.35,0,0,0-.35.36c0,.22.13.35.38.36h.26c1.22,0,2.55,0,4,0v.51h-6.23a.49.49,0,0,0-.49.5.5.5,0,0,0,.49.5h6.23v.59h-3.16a.74.74,0,0,0-.63-.36.73.73,0,0,0-.72.73V19.9a.72.72,0,0,0,.72.72.74.74,0,0,0,.63-.36h3.16v.6h-4.92a.5.5,0,1,0,0,1h4.92v.49h-6.69a.5.5,0,0,0-.5.5.5.5,0,0,0,.5.5h15.24a.82.82,0,0,0,.81-.82.81.81,0,0,0-.81-.81m-3.68-2.46h-3.05v-.47h3.05Zm0-1.47h-3.05v-.47h3.05Zm-4.87,0h-3.06v-.47h3.06Zm-3.06,1h3.06v.47h-3.06Z"/><path class="cls-1" d="M253,16.41a1.12,1.12,0,0,0-1,.68H239.39a.79.79,0,1,0,0,1.58H253a1.13,1.13,0,0,0,0-2.26"/><path class="cls-1" d="M265.67,16.13a.79.79,0,0,0,.79-.79V11a.79.79,0,0,0-1.47-.41h-3.8a.79.79,0,0,0-1.47.41V25.5a.8.8,0,1,0,1.59,0V15.75H265a.81.81,0,0,0,.68.38m-.8-1.65h-3.56v-.76h3.56Zm0-2h-3.56v-.63h3.56Z"/><path class="cls-1" d="M274.21,10.17a.79.79,0,0,0-.68.38h-3.8a.79.79,0,0,0-1.47.41v4.38a.79.79,0,0,0,.79.79.81.81,0,0,0,.68-.38h3.68v7.89l-.38-.19a.67.67,0,0,0-.53,0,.74.74,0,0,0-.35.4.63.63,0,0,0,.28.81c.88.55.95.78,1,.78l0,.15A.79.79,0,0,0,275,25.5V11a.79.79,0,0,0-.79-.79m-.8,4.31h-3.56v-.76h3.56Zm0-2h-3.56v-.63h3.56Z"/><path class="cls-1" d="M265.5,18.84a.7.7,0,0,0,.58.28.67.67,0,0,0,.74-.75c0-.3-.23-.64-.69-1.05a1.91,1.91,0,0,0-1.1-.61.38.38,0,0,0-.41.41.47.47,0,0,0,.09.28,8.23,8.23,0,0,1,.63.86.72.72,0,0,0,.16.58"/><path class="cls-1" d="M271,23.79a.88.88,0,0,0-.48.15,6.4,6.4,0,0,1-2.12-1.32h2.43a.76.76,0,1,0,0-1.51.72.72,0,0,0-.55.24h-2.72a6.89,6.89,0,0,0,.15-.78h2.44a.76.76,0,0,0,0-1.52.73.73,0,0,0-.55.25h-1a8.07,8.07,0,0,0,.66-.93.75.75,0,0,0,.53-.76.78.78,0,0,0-.24-.57.81.81,0,0,0-.57-.23.72.72,0,0,0-.75.52c-.23.7-.46,1.36-.69,2H264a.64.64,0,0,0-.64.63.64.64,0,0,0,.64.64h2.31a4.66,4.66,0,0,1-.19.78h-2.66a.64.64,0,0,0-.64.64.64.64,0,0,0,.64.63h2.12a4.68,4.68,0,0,1-2.43,2.06.39.39,0,0,0-.27.38.37.37,0,0,0,.11.3.39.39,0,0,0,.25.08h.11A4.89,4.89,0,0,0,266.85,23a7.11,7.11,0,0,0,1.3,1.21,7.35,7.35,0,0,0,2.35,1.19,1,1,0,0,0,.93-.06.9.9,0,0,0,.36-.53,1.11,1.11,0,0,0,0-.17.85.85,0,0,0-.85-.85"/><path class="cls-2" d="M40.51,2.12A22.92,22.92,0,0,0,30.28,13.28a2.52,2.52,0,0,1-2.83,1.38C16.94,12.29,2,13.88.05,29.65a20.7,20.7,0,0,0,0,2.4H40.51Z"/><path class="cls-3" d="M0,32.05c.33,6.59,4.11,17.39,22.21,15.34,6.35-1.14,11.83-3,18.28-4V32.05Z"/><path class="cls-4" d="M40.51,43.43a59.32,59.32,0,0,1,9.11-.71c11,0,18.29,3,27.39,4.67,18.1,2,21.88-8.75,22.21-15.34H40.51Z"/><path class="cls-5" d="M99.19,29.65c-2-15.77-16.89-17.36-27.4-15A2.5,2.5,0,0,1,69,13.28C65.05,4.87,58.18,0,49.62,0a19.87,19.87,0,0,0-9.11,2.12V32.05H99.22a20.66,20.66,0,0,0,0-2.4"/></g></g></svg>