<svg xmlns="http://www.w3.org/2000/svg" width="10.333" height="10.332" viewBox="0 0 10.333 10.332"> <defs> <style> .a { fill: #005f32; } </style> </defs> <path class="a" d="M1241.223,316.1l-.926-.722a1.22,1.22,0,0,0-1.573.063,3.994,3.994,0,0,0-.427.435.093.093,0,0,1-.025.024l0,0c-.329.2-1.93-1.231-2.245-1.56-.34-.326-1.861-2.024-1.535-2.274a3.875,3.875,0,0,0,.436-.426,1.22,1.22,0,0,0,.063-1.573l-.722-.926a1.246,1.246,0,0,0-.192-.192l-.01-.008a1.081,1.081,0,0,0-.1-.074l-.013-.008a1.217,1.217,0,0,0-.5-.176h0a1.22,1.22,0,0,0-.437.027c-.38.1-1.676.978-1.647,1.626a3.634,3.634,0,0,0,.322.978,14.19,14.19,0,0,0,7.37,7.37,3.659,3.659,0,0,0,.978.322c.647.029,1.53-1.267,1.626-1.647A1.22,1.22,0,0,0,1241.223,316.1Z" transform="translate(-1231.359 -308.671)" /> </svg>