<svg xmlns="http://www.w3.org/2000/svg" width="70.505" height="33.847" viewBox="0 0 70.505 33.847"><defs><style>.a{fill:#005f32;}</style></defs><g transform="translate(-764.748 -8036.269)"><path class="a" d="M793.526,8037.774a16.3,16.3,0,0,0-7.269,7.927,1.779,1.779,0,0,1-2.005.981c-7.467-1.685-18.065-.555-19.466,10.649a13.463,13.463,0,0,0-.021,1.7h28.761v-21.261"/><path class="a" d="M780.541,8069.934c4.509-.809,8.4-2.1,12.985-2.81v-8.089H764.765C765,8063.719,767.684,8071.4,780.541,8069.934Z"/><path class="a" d="M793.526,8067.124a41.836,41.836,0,0,1,6.474-.507c7.795,0,12.991,2.156,19.459,3.317,12.857,1.461,15.545-6.215,15.776-10.9H793.526Z"/><path class="a" d="M793.526,8037.774v21.262h41.709a13.494,13.494,0,0,0-.021-1.706c-1.4-11.2-12-12.332-19.466-10.648a1.779,1.779,0,0,1-2.005-.981c-2.783-5.975-7.663-9.432-13.743-9.432"/></g></svg>