<svg xmlns="http://www.w3.org/2000/svg" width="38" height="38" viewBox="0 0 38 38">
  <g id="组_95" data-name="组 95" transform="translate(-554.276 -3975.411)">
    <rect id="矩形_119" data-name="矩形 119" width="38" height="38" transform="translate(554.276 3975.411)" fill="none"/>
    <g id="组_94" data-name="组 94">
      <rect id="矩形_120" data-name="矩形 120" width="0.819" height="3.502" transform="translate(584.016 3995.982)" fill="#fff"/>
      <rect id="矩形_121" data-name="矩形 121" width="0.818" height="3.502" transform="translate(582.436 3995.982)" fill="#fff"/>
      <rect id="矩形_122" data-name="矩形 122" width="18.464" height="3.502" transform="translate(563.268 3995.982)" fill="#fff"/>
      <path id="路径_107" data-name="路径 107" d="M584.777,3995.327v-2.032a4.323,4.323,0,0,0-1.347-3.187,3.663,3.663,0,0,0-2.188-.6H580.01a5.033,5.033,0,0,0,.39-1.8,2.76,2.76,0,0,0-.088-.712,3.428,3.428,0,0,0-2.682-2.329.476.476,0,1,0-.139.941,2.511,2.511,0,0,1,1.9,1.635,4.042,4.042,0,0,1-.541,2.5.476.476,0,0,0,.412.711h2a2.774,2.774,0,0,1,1.566.391,3.448,3.448,0,0,1,.994,2.466v2.013Z" fill="#fff" fill-rule="evenodd"/>
      <path id="路径_108" data-name="路径 108" d="M583.38,3995.327v-1.319a2.16,2.16,0,0,0-2.067-2.246h-3.447a1.126,1.126,0,0,1-.843-.269.848.848,0,0,1-.2-.565c0-.011,0-1.853,0-1.853a.477.477,0,0,0-.419-.472c-.025,0-2.449-.312-2.449-1.824a2,2,0,0,1,1.486-1.927.475.475,0,0,0-.294-.9,2.955,2.955,0,0,0-2.143,2.831,2.535,2.535,0,0,0,1.711,2.315,5.682,5.682,0,0,0,1.157.379c0,.481,0,1.442,0,1.472a1.777,1.777,0,0,0,.448,1.186,2.006,2.006,0,0,0,1.548.582h3.319a1.484,1.484,0,0,1,.7.207,1.165,1.165,0,0,1,.547,1.089v1.319Z" fill="#fff" fill-rule="evenodd"/>
    </g>
    <path id="路径_109" data-name="路径 109" d="M573.632,3978.572a16.376,16.376,0,1,0,10.11,29.26,16.516,16.516,0,0,0,2.669-2.642,16.376,16.376,0,0,0-12.779-26.618Zm0,29.249a12.873,12.873,0,0,1-10.38-20.485l17.99,18A12.816,12.816,0,0,1,573.632,4007.821Zm10.283-5.128-18.025-18.029a12.873,12.873,0,0,1,18.025,18.029Z" fill="#b1a383"/>
  </g>
</svg>
