<svg xmlns="http://www.w3.org/2000/svg" width="250" height="225.54" viewBox="0 0 250 225.54"><defs><style>.cls-1{fill:#bca987;}</style></defs><g id="レイヤー_2" data-name="レイヤー 2"><g id="_5つの魅力" data-name="5つの魅力"><path class="cls-1" d="M0,211.82H90a32.29,32.29,0,0,0,32.25-32.25,22.53,22.53,0,0,1,22.5-22.51H187a12.45,12.45,0,0,0,12.44-12.44h-2.84a9.62,9.62,0,0,1-9.6,9.61H144.77a25.37,25.37,0,0,0-25.34,25.34A29.45,29.45,0,0,1,90,209H0Z"/><path class="cls-1" d="M0,225.54H207.65A12.46,12.46,0,0,0,220.1,213.1h-2.84a9.62,9.62,0,0,1-9.61,9.61H0Z"/><path class="cls-1" d="M0,53.89H137.65A13.34,13.34,0,0,0,151,40.56v-1.1h-2.83v1.1a10.51,10.51,0,0,1-10.49,10.49H0Z"/><rect class="cls-1" x="123.2" y="74.97" width="2.84" height="23.91"/><rect class="cls-1" x="100.71" y="97.46" width="47.82" height="2.84"/><rect class="cls-1" x="118.64" y="87.11" width="23.91" height="2.84" transform="translate(-11.37 157.36) rotate(-60)"/><rect class="cls-1" x="112.84" y="80.95" width="2.84" height="23.91" transform="translate(-23.33 145.4) rotate(-60)"/><rect class="cls-1" x="123.01" y="91.49" width="23.91" height="2.84" transform="translate(-28.37 79.93) rotate(-30)"/><rect class="cls-1" x="117.22" y="76.57" width="2.84" height="23.91" transform="translate(-28.37 71.18) rotate(-30)"/><path class="cls-1" d="M93.27,98.31h2.84a28.51,28.51,0,1,1,57,0H156a31.35,31.35,0,1,0-62.69,0Z"/><rect class="cls-1" x="196.55" y="112.47" width="2.84" height="23.91"/><rect class="cls-1" x="174.06" y="134.96" width="47.82" height="2.84"/><rect class="cls-1" x="190.58" y="114.07" width="2.84" height="23.91" transform="translate(-37.29 112.88) rotate(-30)"/><rect class="cls-1" x="196.37" y="128.98" width="23.91" height="2.84" transform="translate(-37.29 121.63) rotate(-30)"/><rect class="cls-1" x="186.2" y="118.45" width="2.84" height="23.91" transform="translate(-19.12 227.68) rotate(-60)"/><rect class="cls-1" x="191.99" y="124.61" width="23.91" height="2.84" transform="translate(-7.17 239.64) rotate(-60)"/><path class="cls-1" d="M166.63,135.81h2.83a28.51,28.51,0,0,1,57,0h2.84a31.35,31.35,0,1,0-62.69,0Z"/><rect class="cls-1" x="148.14" y="8.01" width="2.84" height="23.91"/><rect class="cls-1" x="125.64" y="30.5" width="47.82" height="2.84"/><rect class="cls-1" x="142.16" y="9.61" width="2.84" height="23.91" transform="translate(8.45 74.68) rotate(-30)"/><rect class="cls-1" x="147.95" y="24.53" width="23.91" height="2.84" transform="translate(8.45 83.43) rotate(-30)"/><rect class="cls-1" x="137.78" y="13.99" width="2.84" height="23.91" transform="translate(47.13 133.52) rotate(-60)"/><rect class="cls-1" x="143.58" y="20.15" width="23.91" height="2.84" transform="translate(59.09 145.48) rotate(-60)"/><path class="cls-1" d="M118.21,31.35H121a28.52,28.52,0,0,1,57,0h2.83a31.35,31.35,0,1,0-62.69,0Z"/><rect class="cls-1" x="59.92" y="145.92" width="2.84" height="23.91"/><rect class="cls-1" x="37.43" y="168.42" width="47.82" height="2.84"/><rect class="cls-1" x="53.94" y="147.52" width="2.84" height="23.91" transform="translate(-72.32 49.05) rotate(-30)"/><rect class="cls-1" x="59.74" y="162.44" width="23.91" height="2.84" transform="translate(-72.32 57.8) rotate(-30)"/><rect class="cls-1" x="49.57" y="151.9" width="2.84" height="23.91" transform="matrix(0.5, -0.87, 0.87, 0.5, -116.41, 126.08)"/><rect class="cls-1" x="55.36" y="158.06" width="23.91" height="2.84" transform="translate(-104.46 138.04) rotate(-60)"/><path class="cls-1" d="M30,169.26h2.84a28.51,28.51,0,0,1,57,0h2.83a31.35,31.35,0,1,0-62.69,0Z"/><rect class="cls-1" x="217.24" y="179.71" width="2.84" height="23.91"/><rect class="cls-1" x="194.74" y="202.2" width="47.82" height="2.84"/><rect class="cls-1" x="211.26" y="181.31" width="2.84" height="23.91" transform="translate(-68.14 132.23) rotate(-30)"/><rect class="cls-1" x="217.05" y="196.23" width="23.91" height="2.84" transform="translate(-68.14 140.98) rotate(-30)"/><rect class="cls-1" x="206.88" y="185.69" width="2.84" height="23.91" transform="translate(-67.02 279.21) rotate(-60)"/><rect class="cls-1" x="212.68" y="191.85" width="23.91" height="2.84" transform="translate(-55.06 291.17) rotate(-60)"/><path class="cls-1" d="M187.31,203.05h2.83a28.51,28.51,0,1,1,57,0H250a31.35,31.35,0,1,0-62.69,0Z"/><path class="cls-1" d="M0,119.79H109.67a16.2,16.2,0,0,0,16.18-16.18H123A13.37,13.37,0,0,1,109.67,117H0Z"/><path class="cls-1" d="M0,194.4H45.19a16.2,16.2,0,0,0,16.18-16.19H58.53a13.36,13.36,0,0,1-13.34,13.35H0Z"/></g></g></svg>