<svg xmlns="http://www.w3.org/2000/svg" width="250" height="225.54" viewBox="0 0 250 225.54"><defs><style>.cls-1{fill:#bca987;}</style></defs><g id="レイヤー_2" data-name="レイヤー 2"><g id="_5つの魅力" data-name="5つの魅力"><path class="cls-1" d="M250,211.82H160a32.29,32.29,0,0,1-32.25-32.25,22.53,22.53,0,0,0-22.5-22.51H63.05a12.45,12.45,0,0,1-12.44-12.44h2.84a9.62,9.62,0,0,0,9.6,9.61h42.18a25.37,25.37,0,0,1,25.34,25.34A29.45,29.45,0,0,0,160,209h90Z"/><path class="cls-1" d="M250,225.54H42.35A12.46,12.46,0,0,1,29.9,213.1h2.84a9.62,9.62,0,0,0,9.61,9.61H250Z"/><path class="cls-1" d="M250,53.89H112.35A13.34,13.34,0,0,1,99,40.56v-1.1h2.83v1.1a10.51,10.51,0,0,0,10.49,10.49H250Z"/><rect class="cls-1" x="123.97" y="74.97" width="2.84" height="23.91"/><rect class="cls-1" x="101.47" y="97.46" width="47.82" height="2.84"/><rect class="cls-1" x="117.99" y="76.57" width="2.84" height="23.91" transform="translate(-28.27 71.56) rotate(-30)"/><rect class="cls-1" x="123.78" y="91.49" width="23.91" height="2.84" transform="translate(-28.27 80.32) rotate(-30)"/><rect class="cls-1" x="113.61" y="80.95" width="2.84" height="23.91" transform="translate(-22.94 146.07) rotate(-60)"/><rect class="cls-1" x="119.41" y="87.11" width="23.91" height="2.84" transform="translate(-10.99 158.03) rotate(-60)"/><path class="cls-1" d="M156.73,98.31h-2.84a28.51,28.51,0,0,0-57,0H94a31.35,31.35,0,1,1,62.69,0Z"/><rect class="cls-1" x="50.61" y="112.47" width="2.84" height="23.91"/><rect class="cls-1" x="28.12" y="134.96" width="47.82" height="2.84"/><rect class="cls-1" x="46.05" y="124.61" width="23.91" height="2.84" transform="translate(-80.14 113.25) rotate(-60)"/><rect class="cls-1" x="40.26" y="118.45" width="2.84" height="23.91" transform="translate(-92.1 101.29) rotate(-60)"/><rect class="cls-1" x="50.43" y="128.98" width="23.91" height="2.84" transform="translate(-56.84 48.66) rotate(-30)"/><rect class="cls-1" x="44.63" y="114.07" width="2.84" height="23.91" transform="translate(-56.84 39.91) rotate(-30)"/><path class="cls-1" d="M83.37,135.81H80.54a28.51,28.51,0,0,0-57,0H20.68a31.35,31.35,0,1,1,62.69,0Z"/><rect class="cls-1" x="99.03" y="8.01" width="2.84" height="23.91"/><rect class="cls-1" x="76.53" y="30.5" width="47.82" height="2.84"/><rect class="cls-1" x="94.47" y="20.15" width="23.91" height="2.84" transform="translate(34.53 102.95) rotate(-60)"/><rect class="cls-1" x="88.67" y="13.99" width="2.84" height="23.91" transform="translate(22.58 90.99) rotate(-60)"/><rect class="cls-1" x="98.84" y="24.53" width="23.91" height="2.84" transform="translate(1.87 58.88) rotate(-30)"/><rect class="cls-1" x="93.05" y="9.61" width="2.84" height="23.91" transform="translate(1.87 50.12) rotate(-30)"/><path class="cls-1" d="M131.79,31.35H129a28.52,28.52,0,0,0-57,0H69.1a31.35,31.35,0,1,1,62.69,0Z"/><rect class="cls-1" x="187.24" y="145.92" width="2.84" height="23.91"/><rect class="cls-1" x="164.75" y="168.42" width="47.82" height="2.84"/><rect class="cls-1" x="182.68" y="158.06" width="23.91" height="2.84" transform="translate(-40.79 248.3) rotate(-60)"/><rect class="cls-1" x="176.89" y="151.9" width="2.84" height="23.91" transform="translate(-52.75 236.35) rotate(-60)"/><rect class="cls-1" x="187.06" y="162.44" width="23.91" height="2.84" transform="translate(-55.27 121.46) rotate(-30)"/><rect class="cls-1" x="181.27" y="147.52" width="2.84" height="23.91" transform="translate(-55.26 112.71) rotate(-30)"/><path class="cls-1" d="M220,169.26h-2.84a28.51,28.51,0,0,0-57,0h-2.83a31.35,31.35,0,1,1,62.69,0Z"/><rect class="cls-1" x="29.93" y="179.71" width="2.84" height="23.91"/><rect class="cls-1" x="7.44" y="202.2" width="47.82" height="2.84"/><rect class="cls-1" x="25.37" y="191.85" width="23.91" height="2.84" transform="translate(-148.71 128.96) rotate(-60)"/><rect class="cls-1" x="19.58" y="185.69" width="2.84" height="23.91" transform="translate(-160.67 117) rotate(-60)"/><rect class="cls-1" x="29.75" y="196.23" width="23.91" height="2.84" transform="translate(-93.24 47.33) rotate(-30)"/><rect class="cls-1" x="23.95" y="181.31" width="2.84" height="23.91" transform="translate(-93.23 38.58) rotate(-30)"/><path class="cls-1" d="M62.69,203.05H59.86a28.51,28.51,0,0,0-57,0H0a31.35,31.35,0,1,1,62.69,0Z"/><path class="cls-1" d="M250,119.79H140.33a16.2,16.2,0,0,1-16.18-16.18H127A13.37,13.37,0,0,0,140.33,117H250Z"/><path class="cls-1" d="M250,194.4H204.81a16.2,16.2,0,0,1-16.18-16.19h2.84a13.36,13.36,0,0,0,13.34,13.35H250Z"/></g></g></svg>