<svg xmlns="http://www.w3.org/2000/svg" width="45" height="45" viewBox="0 0 45 45">
  <g id="组_83" data-name="组 83" transform="translate(-1055.496 -10391.671)">
    <rect id="矩形_145" data-name="矩形 145" width="45" height="45" rx="1.996" transform="translate(1055.496 10391.671)" fill="#eaeaea"/>
    <g id="组_82" data-name="组 82">
      <path id="路径_158" data-name="路径 158" d="M1075.721,10400.63s-.339,3.6-2.443,4.48-5.159,1.764-6.245,5.226-3.937,12.625-3.937,12.625" fill="none" stroke="#a7a7a7" stroke-linecap="round" stroke-linejoin="round" stroke-width="1.286"/>
      <path id="路径_159" data-name="路径 159" d="M1065.472,10424.387s4.683-3.055,5.9-12.218a65.028,65.028,0,0,1,.747,15.544" fill="none" stroke="#a7a7a7" stroke-linecap="round" stroke-linejoin="round" stroke-width="1.286"/>
      <path id="路径_160" data-name="路径 160" d="M1080.271,10400.63s.339,3.6,2.443,4.48,5.159,1.764,6.245,5.226,3.937,12.625,3.937,12.625" fill="none" stroke="#a7a7a7" stroke-linecap="round" stroke-linejoin="round" stroke-width="1.286"/>
      <path id="路径_161" data-name="路径 161" d="M1090.52,10424.387s-4.684-3.055-5.905-12.218a65.024,65.024,0,0,0-.747,15.544" fill="none" stroke="#a7a7a7" stroke-linecap="round" stroke-linejoin="round" stroke-width="1.286"/>
    </g>
  </g>
</svg>
