<svg xmlns="http://www.w3.org/2000/svg" width="45" height="45" viewBox="0 0 45 45">
  <g id="组_87" data-name="组 87" transform="translate(-595.496 -10471.672)">
    <rect id="矩形_148" data-name="矩形 148" width="45" height="45" rx="1.996" transform="translate(595.496 10471.672)" fill="#eaeaea"/>
    <g id="组_86" data-name="组 86">
      <path id="路径_162" data-name="路径 162" d="M624.677,10484.227a.735.735,0,0,1,.725.726v21.688a.735.735,0,0,1-.725.726H614.124l-6.9-6.807v-15.606a.734.734,0,0,1,.724-.726h16.729m0-1.139H607.948a1.869,1.869,0,0,0-1.864,1.864v16.084l7.572,7.469h11.021a1.87,1.87,0,0,0,1.864-1.865v-21.687a1.869,1.869,0,0,0-1.864-1.864Z" fill="#a7a7a7"/>
      <path id="路径_163" data-name="路径 163" d="M612.236,10501.73a.77.77,0,0,1,.765.755v3.631l-4.446-4.386h3.681m0-1.232h-6.152v.537l7.572,7.47h.594v-6.02a2.006,2.006,0,0,0-2.014-1.987Z" fill="#a7a7a7"/>
      <path id="路径_164" data-name="路径 164" d="M628.044,10479.839H611.315a1.869,1.869,0,0,0-1.864,1.864v.245h1.139v-.245a.735.735,0,0,1,.725-.725h16.729a.734.734,0,0,1,.724.725v21.688a.734.734,0,0,1-.724.726h-.363v1.14h.363a1.871,1.871,0,0,0,1.864-1.865V10481.7A1.87,1.87,0,0,0,628.044,10479.839Z" fill="#a7a7a7"/>
    </g>
  </g>
</svg>
