<svg xmlns="http://www.w3.org/2000/svg" width="45" height="45" viewBox="0 0 45 45">
  <g id="组_89" data-name="组 89" transform="translate(-825.496 -10471.672)">
    <rect id="矩形_149" data-name="矩形 149" width="45" height="45" rx="1.996" transform="translate(825.496 10471.672)" fill="#eaeaea"/>
    <g id="组_88" data-name="组 88">
      <g id="路径_165" data-name="路径 165" fill="none" stroke-miterlimit="10">
        <path d="M859.1,10490.015h-1.9v3.389a1.518,1.518,0,0,1-1.513,1.514H840.635a1.518,1.518,0,0,1-1.514-1.514v-3.389h-2.233a2.483,2.483,0,0,0-2.476,2.477v13.665a2.484,2.484,0,0,0,2.476,2.476H859.1a2.484,2.484,0,0,0,2.476-2.476v-13.665A2.484,2.484,0,0,0,859.1,10490.015Z" stroke="none"/>
        <path d="M 836.8880004882812 10491.30078125 C 836.231689453125 10491.30078125 835.6976928710938 10491.8349609375 835.6976928710938 10492.4912109375 L 835.6976928710938 10506.15625 C 835.6976928710938 10506.8125 836.231689453125 10507.345703125 836.8880004882812 10507.345703125 L 859.10400390625 10507.345703125 C 859.7492065429688 10507.345703125 860.2943115234375 10506.80078125 860.2943115234375 10506.15625 L 860.2943115234375 10492.4912109375 C 860.2943115234375 10491.8349609375 859.7603149414062 10491.30078125 859.10400390625 10491.30078125 L 858.49169921875 10491.30078125 L 858.49169921875 10493.4033203125 C 858.49169921875 10494.947265625 857.2362060546875 10496.203125 855.6929931640625 10496.203125 L 840.635009765625 10496.203125 C 839.0912475585938 10496.203125 837.8352661132812 10494.947265625 837.8352661132812 10493.4033203125 L 837.8352661132812 10491.30078125 L 836.8880004882812 10491.30078125 M 836.8880004882812 10490.0146484375 L 839.1209716796875 10490.0146484375 L 839.1209716796875 10493.4033203125 C 839.1209716796875 10494.236328125 839.802001953125 10494.9169921875 840.635009765625 10494.9169921875 L 855.6929931640625 10494.9169921875 C 856.5250244140625 10494.9169921875 857.2059936523438 10494.236328125 857.2059936523438 10493.4033203125 L 857.2059936523438 10490.0146484375 L 859.10400390625 10490.0146484375 C 860.4650268554688 10490.0146484375 861.5800170898438 10491.12890625 861.5800170898438 10492.4912109375 L 861.5800170898438 10506.15625 C 861.5800170898438 10507.5166015625 860.4650268554688 10508.6318359375 859.10400390625 10508.6318359375 L 836.8880004882812 10508.6318359375 C 835.5260009765625 10508.6318359375 834.4119873046875 10507.5166015625 834.4119873046875 10506.15625 L 834.4119873046875 10492.4912109375 C 834.4119873046875 10491.12890625 835.5260009765625 10490.0146484375 836.8880004882812 10490.0146484375 Z" stroke="none" fill="#a7a7a7"/>
      </g>
      <path id="路径_166" data-name="路径 166" d="M854.011,10479.712h-12.03a1.518,1.518,0,0,0-1.514,1.514v10.605a1.518,1.518,0,0,0,1.514,1.514h12.03a1.518,1.518,0,0,0,1.514-1.514v-10.605A1.514,1.514,0,0,0,854.011,10479.712Zm-.591,12.27H842.571a.757.757,0,0,1,0-1.514H853.42a.757.757,0,1,1,0,1.514Zm0-3.027H842.571a.757.757,0,0,1,0-1.514H853.42a.757.757,0,1,1,0,1.514Zm0-3.187H842.571a.757.757,0,0,1,0-1.514H853.42a.757.757,0,1,1,0,1.514Zm0-3.026H842.571a.757.757,0,0,1,0-1.515H853.42a.757.757,0,0,1,0,1.515Z" fill="#a7a7a7"/>
      <line id="直线_10" data-name="直线 10" x1="16.12" transform="translate(839.936 10503.183)" fill="none" stroke="#a7a7a7" stroke-linecap="round" stroke-miterlimit="10" stroke-width="1.514"/>
    </g>
  </g>
</svg>
