<svg xmlns="http://www.w3.org/2000/svg" width="45" height="45" viewBox="0 0 45 45">
  <g id="组_81" data-name="组 81" transform="translate(-825.496 -10391.671)">
    <rect id="矩形_144" data-name="矩形 144" width="45" height="45" rx="1.996" transform="translate(825.496 10391.671)" fill="#eaeaea"/>
    <g id="组_80" data-name="组 80">
      <g id="路径_155" data-name="路径 155" fill="none" stroke-miterlimit="10">
        <path d="M832.567,10422.295s6.418-15.023,10.211-16.773,3.063-2.043,17.941-2.043l2.705,15.861-3.573,2.955Z" stroke="none"/>
        <path d="M 859.3143920898438 10420.8037109375 L 861.8095092773438 10418.740234375 L 859.4610595703125 10404.9697265625 C 853.90087890625 10404.9765625 850.4213256835938 10405.0322265625 848.3125610351562 10405.2578125 C 846.3663940429688 10405.4658203125 845.6685180664062 10405.798828125 844.2781372070312 10406.4619140625 C 844.0187377929688 10406.5859375 843.7247314453125 10406.7265625 843.402587890625 10406.875 C 842.9551391601562 10407.08203125 841.2130126953125 10408.294921875 837.5792236328125 10415.240234375 C 836.490478515625 10417.3212890625 835.5264282226562 10419.357421875 834.8642578125 10420.8037109375 L 859.3143920898438 10420.8037109375 M 859.8510131835938 10422.294921875 L 832.5670166015625 10422.294921875 C 832.5670166015625 10422.294921875 838.9849853515625 10407.271484375 842.7780151367188 10405.521484375 C 846.5700073242188 10403.76953125 845.8410034179688 10403.478515625 860.718994140625 10403.478515625 L 863.4240112304688 10419.33984375 L 859.8510131835938 10422.294921875 Z" stroke="none" fill="#a7a7a7"/>
      </g>
      <g id="路径_156" data-name="路径 156" fill="none" stroke-miterlimit="10">
        <path d="M841.251,10416.9s3.672-7.5,5.841-8.374,1.753-1.021,10.265-1.021l1.836,9.395Z" stroke="none"/>
        <path d="M 857.3826293945312 10415.4072265625 L 856.1295776367188 10408.99609375 C 853.3143920898438 10409.001953125 851.4235229492188 10409.0322265625 850.3081665039062 10409.13671875 C 849.2747802734375 10409.2333984375 848.9476928710938 10409.369140625 848.1574096679688 10409.6982421875 C 848.0017700195312 10409.7626953125 847.8345336914062 10409.8330078125 847.6492309570312 10409.9072265625 C 847.6127319335938 10409.921875 846.73046875 10410.3134765625 844.6422729492188 10413.796875 C 844.3078002929688 10414.3544921875 843.9940795898438 10414.90625 843.7173461914062 10415.4072265625 L 857.3826293945312 10415.4072265625 M 859.1929931640625 10416.8984375 L 841.2509765625 10416.8984375 C 841.2509765625 10416.8984375 844.9229736328125 10409.3984375 847.0919799804688 10408.5244140625 C 849.2620239257812 10407.650390625 848.844970703125 10407.50390625 857.3569946289062 10407.50390625 L 859.1929931640625 10416.8984375 Z" stroke="none" fill="#a7a7a7"/>
      </g>
      <line id="直线_5" data-name="直线 5" x2="26.625" transform="translate(832.567 10424.483)" fill="none" stroke="#a7a7a7" stroke-miterlimit="10" stroke-width="1.491"/>
      <path id="路径_157" data-name="路径 157" d="M834.907,10414.059h0a1.7,1.7,0,0,1-.624-2.328l1.776-2.963a1.706,1.706,0,0,1,2.33-.624l-.9,1.442Z" fill="#a7a7a7"/>
    </g>
  </g>
</svg>
