<svg xmlns="http://www.w3.org/2000/svg" width="45" height="45" viewBox="0 0 45 45">
  <g id="组_77" data-name="组 77" transform="translate(-365.496 -10391.671)">
    <rect id="矩形_131" data-name="矩形 131" width="45" height="45" rx="1.996" transform="translate(365.496 10391.671)" fill="#eaeaea"/>
    <g id="组_76" data-name="组 76">
      <g id="矩形_132" data-name="矩形 132" transform="translate(376.458 10399.836)" fill="none" stroke="#a7a7a7" stroke-miterlimit="10" stroke-width="1.286">
        <rect width="23.076" height="28.67" rx="2.103" stroke="none"/>
        <rect x="0.643" y="0.643" width="21.79" height="27.384" rx="1.46" fill="none"/>
      </g>
      <g id="矩形_133" data-name="矩形 133" transform="translate(380.315 10418.993)" fill="none" stroke="#a7a7a7" stroke-miterlimit="10" stroke-width="1.286">
        <rect width="15.361" height="5.656" rx="1.286" stroke="none"/>
        <rect x="0.643" y="0.643" width="14.076" height="4.37" rx="0.643" fill="none"/>
      </g>
      <g id="矩形_134" data-name="矩形 134" transform="translate(376.458 10404.02)" fill="none" stroke="#a7a7a7" stroke-miterlimit="10" stroke-width="1.022">
        <rect width="23.076" height="1.286" stroke="none"/>
        <rect x="0.511" y="0.511" width="22.053" height="0.263" fill="none"/>
      </g>
      <g id="矩形_135" data-name="矩形 135" transform="translate(376.458 10415.591)" fill="none" stroke="#a7a7a7" stroke-miterlimit="10" stroke-width="1.022">
        <rect width="23.076" height="1.286" stroke="none"/>
        <rect x="0.511" y="0.511" width="22.053" height="0.263" fill="none"/>
      </g>
      <g id="组_75" data-name="组 75">
        <rect id="矩形_136" data-name="矩形 136" width="1.929" height="5.143" transform="translate(380.603 10407.877)" fill="#a7a7a7"/>
        <rect id="矩形_137" data-name="矩形 137" width="1.929" height="5.143" transform="translate(383.817 10407.877)" fill="#a7a7a7"/>
        <rect id="矩形_138" data-name="矩形 138" width="1.929" height="5.143" transform="translate(387.032 10407.877)" fill="#a7a7a7"/>
        <rect id="矩形_139" data-name="矩形 139" width="1.929" height="5.143" transform="translate(390.246 10407.877)" fill="#a7a7a7"/>
        <rect id="矩形_140" data-name="矩形 140" width="1.929" height="5.143" transform="translate(393.46 10407.877)" fill="#a7a7a7"/>
      </g>
    </g>
  </g>
</svg>
